<svg xmlns="http://www.w3.org/2000/svg" width="93.0455mm" height="93.0455mm" viewBox="0 0 263.751 263.751"><title>payrexx_p-white</title><path d="M131.8756,15.9016A115.9744,115.9744,0,0,0,63.9083,225.8464V62.0188H86.5308V76.5462a67.6079,67.6079,0,0,1,47.1319-18.9727c39.5883,0,69.7526,32.8551,69.7526,73.2544,0,39.8562-30.1643,72.1755-69.7526,72.1755a68.1563,68.1563,0,0,1-47.1319-18.675V238.647A115.9857,115.9857,0,1,0,131.8756,15.9016Z" style="fill:#fff"/><path d="M180.5247,130.8279c0-28.8177-21.008-52.2464-46.862-52.2464-25.5838,0-46.5918,23.4287-46.5918,52.2464,0,28.277,21.008,51.17,46.5918,51.17C159.5167,181.9979,180.5247,159.1049,180.5247,130.8279Z" style="fill:#fff"/></svg>